<svg width="167" height="167" viewBox="0 0 167 167" fill="none" xmlns="http://www.w3.org/2000/svg">
<g filter="url(#filter0_d)">
<path d="M83.5 156.671C126.12 156.671 160.671 122.12 160.671 79.5C160.671 36.8797 126.12 2.3291 83.5 2.3291C40.8797 2.3291 6.3291 36.8797 6.3291 79.5C6.3291 122.12 40.8797 156.671 83.5 156.671Z" fill="#EAB14D"/>
<path d="M83.5 2.3291C82.1224 2.3291 80.7535 2.36668 79.3936 2.4381C120.105 4.5728 152.458 38.2572 152.458 79.5C152.458 120.743 120.105 154.428 79.3939 156.562C80.7538 156.633 82.1224 156.671 83.5003 156.671C126.121 156.671 160.671 122.12 160.671 79.5C160.671 36.8796 126.12 2.3291 83.5 2.3291Z" fill="#E49542"/>
<path d="M83.5 139.635C116.712 139.635 143.635 112.712 143.635 79.5C143.635 46.2882 116.712 19.3647 83.5 19.3647C50.2882 19.3647 23.3647 46.2882 23.3647 79.5C23.3647 112.712 50.2882 139.635 83.5 139.635Z" fill="#F4FBFF"/>
<path d="M83.5 19.3647C81.8346 19.3647 80.1859 19.4356 78.5549 19.5685C109.453 22.0839 133.745 47.9537 133.745 79.5C133.745 111.046 109.453 136.916 78.5549 139.431C80.1862 139.564 81.8349 139.635 83.5 139.635C116.712 139.635 143.635 112.712 143.635 79.5C143.635 46.2882 116.712 19.3647 83.5 19.3647Z" fill="#DAF1F4"/>
<path d="M83.5 85.7165C86.9333 85.7165 89.7165 82.9333 89.7165 79.5C89.7165 76.0667 86.9333 73.2834 83.5 73.2834C80.0667 73.2834 77.2834 76.0667 77.2834 79.5C77.2834 82.9333 80.0667 85.7165 83.5 85.7165Z" fill="#365E7D"/>
<path d="M83.5 37.8733C84.7863 37.8733 85.8291 36.8305 85.8291 35.5442V32.1257C85.8291 30.8394 84.7863 29.7966 83.5 29.7966C82.2137 29.7966 81.1709 30.8394 81.1709 32.1257V35.5442C81.1709 36.8305 82.2137 37.8733 83.5 37.8733Z" fill="black"/>
<path d="M118.519 44.4069C117.61 43.4973 116.135 43.497 115.226 44.4069L112.809 46.8239C111.899 47.7335 111.899 49.2083 112.808 50.1179C113.263 50.5725 113.859 50.8001 114.455 50.8001C115.051 50.8001 115.648 50.5728 116.102 50.1182L118.519 47.7009C119.429 46.7913 119.429 45.3165 118.519 44.4069Z" fill="black"/>
<path d="M127.203 77.1711C125.916 77.1711 124.874 78.214 124.874 79.5003C124.874 80.7865 125.916 81.8294 127.203 81.8294H130.621C131.908 81.8294 132.95 80.7869 132.95 79.5003C132.95 78.2137 131.908 77.1711 130.621 77.1711H127.203Z" fill="black"/>
<path d="M115.923 108.808C115.013 107.899 113.538 107.899 112.629 108.808C111.719 109.718 111.719 111.193 112.629 112.102L115.046 114.519C115.501 114.974 116.097 115.201 116.693 115.201C117.289 115.201 117.885 114.974 118.34 114.519C119.25 113.609 119.25 112.135 118.34 111.225L115.923 108.808Z" fill="black"/>
<path d="M80.9172 123.203V126.621C80.9172 127.908 81.96 128.95 83.2463 128.95C84.5326 128.95 85.5754 127.908 85.5754 126.621V123.203C85.5754 121.916 84.5329 120.874 83.2463 120.874C81.9597 120.874 80.9172 121.916 80.9172 123.203Z" fill="black"/>
<path d="M50.6445 108.629L48.2272 111.046C47.3176 111.955 47.3176 113.43 48.2272 114.339C48.6818 114.794 49.2781 115.021 49.874 115.021C50.4699 115.021 51.0662 114.794 51.5208 114.34L53.9381 111.923C54.8477 111.013 54.8477 109.538 53.9381 108.629C53.0289 107.719 51.5541 107.72 50.6445 108.629Z" fill="black"/>
<path d="M36.1254 76.9175C34.8391 76.9175 33.7963 77.9603 33.7963 79.2466C33.7963 80.5332 34.8391 81.5757 36.1254 81.5757H39.5439C40.8302 81.5757 41.873 80.5332 41.873 79.2466C41.873 77.9603 40.8302 76.9175 39.5439 76.9175H36.1254Z" fill="black"/>
<path d="M54.1179 46.6448L51.7006 44.2275C50.7907 43.3179 49.3165 43.3182 48.4066 44.2275C47.497 45.1371 47.4973 46.6119 48.4066 47.5215L50.8239 49.9384C51.2789 50.3934 51.8748 50.6207 52.4708 50.6207C53.0667 50.6207 53.6629 50.3934 54.1179 49.9384C55.0275 49.0288 55.0272 47.5544 54.1179 46.6448Z" fill="black"/>
<path d="M89.7414 85.3283L106.331 93.859C107.482 94.4509 108.883 93.99 109.468 92.8528C110.056 91.7088 109.606 90.3048 108.462 89.7163L91.8773 81.1884C91.9873 80.6421 92.0456 80.0775 92.0456 79.4996C92.0456 75.5951 89.4125 72.2962 85.8294 71.2794V47.5391C85.8294 46.2528 84.7866 45.21 83.5003 45.21C82.214 45.21 81.1712 46.2528 81.1712 47.5391V71.2794C78.3291 72.0859 76.0866 74.3284 75.2802 77.1705H63.7194C62.4331 77.1705 61.3903 78.2133 61.3903 79.4996C61.3903 80.7859 62.4331 81.8287 63.7194 81.8287H75.2802C76.2969 85.4118 79.5958 88.0452 83.5003 88.0452C85.9611 88.0456 88.1809 86.9987 89.7414 85.3283ZM83.5 83.3873C81.3566 83.3873 79.6126 81.6436 79.6126 79.4999C79.6126 77.3565 81.3563 75.6125 83.5 75.6125C85.6434 75.6125 87.3871 77.3562 87.3871 79.4999C87.3874 81.6436 85.6434 83.3873 83.5 83.3873Z" fill="black"/>
<path d="M143.635 77.1665C144.918 77.0684 145.878 75.9492 145.78 74.6663C144.581 59.0169 137.571 44.4899 126.041 33.7608C114.45 22.9755 99.3422 17.0356 83.5 17.0356C49.0572 17.0356 21.0356 45.0569 21.0356 79.5C21.0356 113.943 49.0572 141.964 83.5 141.964C116.075 141.964 143.288 116.87 145.78 84.3343C145.877 83.0517 144.918 81.9325 143.635 81.834C142.358 81.7381 141.233 82.6958 141.135 83.9787C138.834 114.02 113.708 137.306 83.5 137.306C51.6254 137.306 25.6938 111.375 25.6938 79.5C25.6938 47.6254 51.6254 21.6938 83.5 21.6938C98.1603 21.6938 112.141 27.1905 122.868 37.1712C133.539 47.1006 140.026 60.5429 141.135 75.0222C141.233 76.3041 142.348 77.2668 143.635 77.1665Z" fill="black"/>
<path d="M139.715 23.2851C124.7 8.26924 104.736 0 83.5 0C68.2388 0 53.4133 4.33648 40.6256 12.5411C39.543 13.2358 39.2284 14.6764 39.9231 15.7593C40.6178 16.8416 42.0581 17.1562 43.1413 16.4618C55.1766 8.73972 69.1326 4.6582 83.5 4.6582C103.491 4.6582 122.285 12.443 136.421 26.5788C150.557 40.7146 158.342 59.5089 158.342 79.5C158.342 120.863 124.869 154.342 83.5 154.342C76.1081 154.342 68.7972 153.262 61.7704 151.134C60.5391 150.761 59.2388 151.456 58.8662 152.688C58.4932 153.919 59.1888 155.219 60.4199 155.592C67.8851 157.853 75.6503 159 83.5 159C127.437 159 163 123.443 163 79.5C163 58.2648 154.73 38.3007 139.715 23.2851Z" fill="black"/>
<path d="M53.3012 147.994C26.1817 136.019 8.6582 109.133 8.6582 79.5C8.6582 57.1071 18.5681 36.0722 35.8466 21.7883C36.8378 20.9687 36.9773 19.5008 36.1574 18.5092C35.3382 17.5182 33.8703 17.3788 32.8784 18.198C14.526 33.3698 4 55.7133 4 79.5C4 110.977 22.6132 139.535 51.4193 152.256C51.7252 152.391 52.0447 152.455 52.359 152.455C53.2534 152.455 54.1061 151.937 54.4909 151.066C55.0104 149.889 54.4778 148.514 53.3012 147.994Z" fill="black"/>
</g>
<defs>
<filter id="filter0_d" x="0" y="0" width="167" height="167" filterUnits="userSpaceOnUse" color-interpolation-filters="sRGB">
<feFlood flood-opacity="0" result="BackgroundImageFix"/>
<feColorMatrix in="SourceAlpha" type="matrix" values="0 0 0 0 0 0 0 0 0 0 0 0 0 0 0 0 0 0 127 0"/>
<feOffset dy="4"/>
<feGaussianBlur stdDeviation="2"/>
<feColorMatrix type="matrix" values="0 0 0 0 0 0 0 0 0 0 0 0 0 0 0 0 0 0 0.25 0"/>
<feBlend mode="normal" in2="BackgroundImageFix" result="effect1_dropShadow"/>
<feBlend mode="normal" in="SourceGraphic" in2="effect1_dropShadow" result="shape"/>
</filter>
</defs>
</svg>
