<svg width="182" height="190" viewBox="0 0 182 190" fill="none" xmlns="http://www.w3.org/2000/svg">
<g clip-path="url(#clip0)" filter="url(#filter0_d)">
<path d="M128.385 119.237L100.178 131.101L121.709 179.132L131.913 164.5L149.625 166.618L128.385 119.237Z" fill="#FF507D"/>
<path d="M32.4928 166.618L50.2051 164.5L60.4088 179.132L81.94 131.101L53.7324 119.237L32.4928 166.618Z" fill="#FF507D"/>
<path d="M67.5783 125.061L53.7324 119.237L32.4928 166.618L49.8816 164.539L61.6409 138.307C63.719 139.261 65.9926 139.799 68.3312 139.799C69.1651 139.799 70.0058 139.733 70.8301 139.604L77.1536 138.609L78.2694 139.289L81.94 131.101L67.5783 125.061Z" fill="#D23C69"/>
<path d="M120.457 138.263C122.893 137.125 125.051 135.402 126.668 133.178L130.429 128.007L132.132 127.595L128.384 119.237L114.538 125.061L100.177 131.101L121.708 179.132L131.912 164.5L132.236 164.539L120.457 138.263Z" fill="#D23C69"/>
<path d="M156.114 72.5897L152.34 78.7787C151.489 80.175 151.161 81.8283 151.415 83.4439L152.54 90.5928C152.942 93.1522 151.877 95.7222 149.782 97.2461L143.932 101.501C142.608 102.464 141.669 103.867 141.284 105.458L139.581 112.496C138.972 115.01 137.01 116.973 134.496 117.581L127.458 119.284C125.867 119.669 124.463 120.608 123.5 121.932L119.247 127.78C117.723 129.875 115.153 130.94 112.593 130.538L105.447 129.413C103.831 129.159 102.178 129.487 100.781 130.338L94.5929 134.111C92.3868 135.457 89.6135 135.457 87.4074 134.111L81.2183 130.338C79.8221 129.486 78.1688 129.158 76.5532 129.413L69.4043 130.538C66.8449 130.94 64.2749 129.875 62.751 127.78L58.4964 121.93C57.5331 120.606 56.1304 119.667 54.5389 119.282L47.5006 117.579C44.9871 116.97 43.0246 115.007 42.4164 112.494L40.7133 105.456C40.3283 103.865 39.3895 102.461 38.0651 101.498L32.2172 97.2447C30.1217 95.7204 29.0568 93.1507 29.4591 90.5906L30.5839 83.4446C30.838 81.829 30.5103 80.1754 29.6589 78.7787L25.8856 72.5904C24.5402 70.3843 24.5402 67.611 25.8856 65.4049L29.6593 59.2158C30.5106 57.8196 30.8387 56.1663 30.5842 54.5507L29.4595 47.4018C29.0568 44.8424 30.1217 42.2724 32.2176 40.7485L38.0668 36.4939C39.391 35.5306 40.3301 34.1279 40.7151 32.5364L42.4185 25.4981C43.0271 22.9846 44.9896 21.0221 47.5031 20.4139L54.5411 18.7108C56.1325 18.3258 57.5359 17.387 58.4992 16.0626L62.7528 10.2147C64.277 8.11924 66.8467 7.05426 69.4068 7.45665L76.5528 8.58135C78.1684 8.83551 79.8221 8.50777 81.2187 7.65642L87.4064 3.88311C89.6124 2.53766 92.3858 2.53766 94.5918 3.88311L100.781 7.65678C102.177 8.50813 103.83 8.83622 105.446 8.58171L112.595 7.457C115.154 7.05426 117.724 8.11924 119.248 10.2151L123.503 16.0643C124.466 17.3885 125.869 18.3276 127.46 18.7126L134.499 20.416C137.012 21.0246 138.975 22.9871 139.583 25.5006L141.286 32.5386C141.671 34.13 142.61 35.5334 143.934 36.4967L149.782 40.7503C151.878 42.2745 152.942 44.8442 152.54 47.4043L151.415 54.5503C151.161 56.1659 151.489 57.8196 152.34 59.2162L156.114 65.4039C157.459 67.6106 157.459 70.3833 156.114 72.5897Z" fill="#FFC850"/>
<path d="M51.2285 55.23C51.2285 36.8878 58.1079 20.1594 69.4136 7.4578L69.4065 7.45674C66.8467 7.05364 64.2767 8.11862 62.7528 10.2145L58.4996 16.0623C57.5363 17.3864 56.1332 18.3256 54.5415 18.7105L47.5035 20.4136C44.99 21.0218 43.0274 22.9844 42.4189 25.4979L40.7155 32.5362C40.3305 34.1276 39.3917 35.5303 38.0672 36.4936L32.2176 40.7482C30.1225 42.2721 29.0571 44.8418 29.4595 47.4015L30.5842 54.55C30.8384 56.1656 30.5103 57.8189 29.6593 59.2152L25.8853 65.4036C24.5398 67.6096 24.5398 70.383 25.8853 72.589L29.6586 78.7767C30.5103 80.1733 30.838 81.827 30.5835 83.4426L29.4588 90.5893C29.0557 93.149 30.1207 95.7191 32.2165 97.243L38.0644 101.497C39.3885 102.46 40.3276 103.863 40.7126 105.455L42.4157 112.493C43.0239 115.006 44.9864 116.969 47.5 117.577L54.5383 119.281C56.1297 119.666 57.5324 120.604 58.4957 121.929L62.75 127.778C64.2742 129.873 66.8435 130.939 69.4033 130.536L76.5518 129.412C78.1674 129.157 79.8207 129.485 81.2173 130.336L87.4064 134.11C89.6128 135.456 92.3858 135.456 94.5919 134.11L100.779 130.337C102.176 129.485 103.83 129.157 105.445 129.412L112.592 130.537C115.151 130.94 117.722 129.875 119.245 127.779L119.784 127.038C81.6293 125.294 51.2285 93.8166 51.2285 55.23Z" fill="#E1A546"/>
<path d="M90.9984 117.947C118.032 117.947 139.947 96.0321 139.947 68.9984C139.947 41.9647 118.032 20.0496 90.9984 20.0496C63.9647 20.0496 42.0495 41.9647 42.0495 68.9984C42.0495 96.0321 63.9647 117.947 90.9984 117.947Z" fill="#FFDC64"/>
<path d="M102.051 92.5934C84.7105 89.1425 70.8401 75.2646 67.3988 57.9226C66.2996 52.383 66.2748 46.9994 67.1169 41.907C67.4357 39.9782 65.0847 38.7877 63.6649 40.1318C54.8827 48.4433 49.8834 60.707 51.5459 74.0869C53.7523 91.8497 68.1449 106.243 85.9073 108.451C99.2883 110.114 111.553 105.115 119.866 96.3322C121.209 94.9124 120.019 92.5614 118.09 92.8802C112.99 93.723 107.598 93.6971 102.051 92.5934Z" fill="#FFC850"/>
<path d="M90.9995 88.0817L74.4339 97.3545C72.7102 98.3193 70.6481 96.821 71.0331 94.8836L74.7328 76.2631L60.7945 63.3734C59.3446 62.0322 60.1323 59.6083 62.0934 59.3758L80.9461 57.1406L88.8976 39.9014C89.7248 38.1081 92.2738 38.1081 93.101 39.9014L101.053 57.1406L119.905 59.3758C121.867 59.6083 122.654 62.0329 121.204 63.3734L107.266 76.2631L110.965 94.8836C111.35 96.821 109.288 98.3193 107.565 97.3545L90.9995 88.0817Z" fill="white"/>
<path d="M90.9995 41.4631L92.8483 39.6143C91.8686 38.1853 89.6661 38.2354 88.8976 39.9011L80.9461 57.1403L62.093 59.3755C60.1316 59.608 59.3438 62.0323 60.7942 63.3731L74.7325 76.2628L71.0324 94.8834C70.6474 96.8207 72.7095 98.319 74.4332 97.3543L78.798 94.9111L85.1228 76.4103C85.805 74.4154 85.4115 72.209 84.082 70.5728L82.958 69.1897C82.1547 68.2008 82.6363 66.7121 83.8673 66.3822L84.9234 66.0989C87.4206 65.4288 89.2267 63.2619 89.4361 60.6851L90.9995 41.4631Z" fill="#FFFAB4"/>
<path d="M111.646 27.7973C113.059 28.5125 114.785 27.9444 115.499 26.5307C116.214 25.117 115.647 23.3919 114.233 22.6774C94.2132 12.5615 70.0978 16.4294 54.2258 32.3018C35.7787 50.7485 33.9324 80.1622 49.9314 100.72C50.4969 101.447 51.3422 101.827 52.1968 101.827C52.8124 101.827 53.4327 101.63 53.9563 101.222C55.2065 100.249 55.4312 98.4475 54.4586 97.1973C40.2331 78.9184 41.8771 52.763 58.2824 36.3577C72.3974 22.2413 93.8425 18.801 111.646 27.7973Z" fill="black"/>
<path d="M133.282 44.3178C131.868 45.0319 131.3 46.7566 132.015 48.1711C141.004 65.9715 137.562 87.4135 123.45 101.526C107.044 117.931 80.8888 119.574 62.6099 105.349C61.3593 104.377 59.5578 104.601 58.5849 105.852C57.612 107.102 57.837 108.904 59.0872 109.877C68.4517 117.164 79.6529 120.749 90.8185 120.749C104.166 120.749 117.462 115.626 127.506 105.582C143.374 89.7137 147.244 65.6029 137.135 45.5854C136.421 44.1713 134.696 43.6043 133.282 44.3178Z" fill="black"/>
<path d="M121.348 34.3806C122.064 35.0133 122.771 35.6788 123.45 36.3573C124.129 37.0363 124.794 37.7433 125.427 38.4596C125.994 39.1009 126.784 39.4282 127.577 39.4282C128.252 39.4282 128.93 39.1911 129.476 38.7095C130.662 37.6605 130.774 35.8483 129.725 34.6614C129.015 33.8573 128.268 33.0632 127.507 32.3018C126.745 31.54 125.951 30.7935 125.147 30.0829C123.96 29.0336 122.147 29.1459 121.099 30.3325C120.049 31.519 120.16 33.3319 121.348 34.3806Z" fill="black"/>
<path d="M158.562 63.9113L154.789 57.7237C154.292 56.9082 154.1 55.9399 154.248 54.9972L155.373 47.8512C155.946 44.2094 154.45 40.6003 151.469 38.4316L145.621 34.1781C144.848 33.6157 144.299 32.7946 144.074 31.8654L142.37 24.8275C141.506 21.2525 138.748 18.4948 135.173 17.6296L128.135 15.9261C127.206 15.7011 126.384 15.1519 125.822 14.3784L121.568 8.52918C119.4 5.54821 115.79 4.05133 112.15 4.62506L105.001 5.74976C104.058 5.89799 103.09 5.70604 102.275 5.20909L96.0862 1.43472C92.9489 -0.478417 89.0515 -0.478062 85.9141 1.43472L79.7264 5.20803C78.9114 5.70533 77.9438 5.89693 77 5.7487L69.8533 4.62399C66.2126 4.05097 62.6028 5.54714 60.4344 8.52811L56.1809 14.3759C55.6185 15.1491 54.797 15.6986 53.8678 15.9237L46.8299 17.6267C43.2556 18.4912 40.4972 21.2493 39.632 24.8239L37.9286 31.8622C37.7036 32.7914 37.1544 33.6129 36.3809 34.1749L30.5312 38.4291C27.5503 40.5971 26.0545 44.2059 26.6271 47.8477L27.7518 54.9965C27.9001 55.9396 27.7081 56.9079 27.2112 57.7226L23.4371 63.9117C21.5247 67.049 21.5247 70.9464 23.4375 74.0834L27.2108 80.2711C27.7081 81.0865 27.9001 82.0548 27.7515 82.9975L26.6268 90.1442C26.0534 93.7857 27.5496 97.3951 30.5305 99.5635L36.3784 103.817C37.1515 104.379 37.7011 105.201 37.9261 106.13L39.6291 113.168C40.4936 116.743 43.2517 119.5 46.8263 120.366L49.7653 121.077L29.8754 165.444C29.4528 166.387 29.5697 167.484 30.1822 168.317C30.7943 169.149 31.8063 169.588 32.8329 169.465L48.8369 167.552L58.0563 180.772C58.5959 181.545 59.4768 182 60.4081 182C60.4973 182 60.5876 181.995 60.6772 181.987C61.7059 181.891 62.6035 181.248 63.0261 180.305L83.3394 134.99L85.9134 136.56C87.4821 137.516 89.2409 137.994 90.9995 137.994C92.758 137.994 94.5168 137.516 96.0855 136.56L98.7522 134.934L119.091 180.305C119.514 181.248 120.411 181.891 121.44 181.987C121.53 181.996 121.62 182 121.709 182C122.641 182 123.522 181.545 124.061 180.772L133.28 167.552L149.284 169.465C150.31 169.587 151.323 169.149 151.935 168.317C152.547 167.484 152.665 166.387 152.242 165.444L132.342 121.052L135.17 120.368C138.744 119.504 141.503 116.745 142.368 113.171L144.071 106.133C144.296 105.203 144.846 104.382 145.619 103.82L151.468 99.5656C154.449 97.3976 155.945 93.7889 155.372 90.1471L154.248 82.9982C154.1 82.0552 154.291 81.0869 154.788 80.2722L158.562 74.0831C160.475 70.9457 160.475 67.048 158.562 63.9113ZM59.8639 173.337L52.5576 162.859C51.9518 161.991 50.916 161.526 49.8645 161.652L37.1817 163.169L55.3032 122.744C55.6345 122.987 55.9317 123.279 56.1766 123.616L60.4309 129.466C60.835 130.021 61.2893 130.525 61.7845 130.973L52.2462 152.251C51.5985 153.696 52.2447 155.393 53.6901 156.041C54.0711 156.212 54.4693 156.293 54.8614 156.293C55.9569 156.293 57.0034 155.662 57.4801 154.597L66.9846 133.396C67.9199 133.524 68.8828 133.522 69.8494 133.37L76.9979 132.245C77.4258 132.178 77.8585 132.184 78.2797 132.254L59.8639 173.337ZM132.253 161.652C131.201 161.526 130.166 161.991 129.56 162.859L122.254 173.337L103.83 132.238C104.217 132.185 104.611 132.185 105.001 132.246L112.147 133.371C113.152 133.529 114.154 133.524 115.125 133.379L124.637 154.598C125.114 155.663 126.16 156.294 127.256 156.294C127.648 156.294 128.046 156.213 128.427 156.042C129.872 155.394 130.519 153.697 129.871 152.252L120.296 130.893C120.758 130.464 121.185 129.99 121.566 129.467L125.819 123.619C126.087 123.25 126.416 122.934 126.785 122.679L144.936 163.169L132.253 161.652ZM153.665 71.0968L149.891 77.2859C148.687 79.2601 148.222 81.6055 148.581 83.8898L149.706 91.0383C149.942 92.5415 149.325 94.0313 148.094 94.9264L142.245 99.181C140.372 100.543 139.041 102.533 138.496 104.783L136.793 111.821C136.436 113.297 135.297 114.436 133.821 114.793L126.783 116.496C124.532 117.04 122.542 118.372 121.18 120.245L116.927 126.093C116.032 127.324 114.542 127.941 113.038 127.704L105.892 126.579C103.607 126.22 101.262 126.685 99.2869 127.889L93.0992 131.662C91.8042 132.451 90.1947 132.451 88.9004 131.662L82.7113 127.888C81.1721 126.95 79.4076 126.46 77.6221 126.46C77.1173 126.46 76.61 126.5 76.1071 126.579L68.9582 127.703C67.4546 127.94 65.9652 127.322 65.0701 126.092L60.8155 120.243C59.4533 118.37 57.4637 117.039 55.2133 116.494L48.175 114.791C46.6991 114.433 45.5609 113.295 45.2036 111.819L43.5006 104.781C42.956 102.531 41.6247 100.54 39.7518 99.1782L33.9043 94.9242C32.6737 94.0292 32.0562 92.539 32.293 91.0358L33.4177 83.8891C33.777 81.6044 33.3121 79.2591 32.1081 77.2844L28.3348 71.0961C27.5449 69.8011 27.5449 68.1919 28.3348 66.8973L32.1088 60.7082C33.3124 58.7339 33.7778 56.3885 33.4184 54.1043L32.2937 46.9558C32.0573 45.4525 32.6751 43.9627 33.9054 43.0677L39.755 38.813C41.6272 37.4509 42.9588 35.4613 43.5034 33.2108L45.2068 26.1725C45.5641 24.697 46.7023 23.5584 48.1782 23.2012L55.2165 21.4981C57.4673 20.9535 59.4572 19.622 60.8194 17.7493L65.0729 11.9015C65.968 10.6709 67.4574 10.0527 68.9614 10.2898L76.1081 11.4145C78.3931 11.7746 80.7388 11.3089 82.7131 10.105L88.9008 6.33167C90.1957 5.54252 91.8053 5.54252 93.0996 6.33167L99.2886 10.1053C101.263 11.3097 103.609 11.775 105.893 11.4152L113.042 10.2905C114.545 10.0549 116.035 10.6719 116.93 11.9022L121.184 17.7515C122.547 19.6237 124.536 20.9553 126.787 21.4999L133.825 23.2033C135.301 23.5606 136.439 24.6988 136.796 26.1747L138.499 33.2126C139.044 35.4635 140.375 37.4537 142.248 38.8159L148.096 43.0694C149.327 43.9645 149.944 45.4546 149.707 46.9579L148.583 54.1046C148.223 56.3892 148.688 58.7346 149.892 60.7092L153.666 66.8976C154.455 68.1926 154.455 69.8018 153.665 71.0968Z" fill="black"/>
<path d="M58.8469 65.4792L71.6065 77.279L68.2196 94.3252C67.8211 96.3321 68.6017 98.3256 70.2571 99.5278C71.1703 100.191 72.23 100.527 73.2964 100.527C74.1634 100.527 75.0343 100.305 75.8345 99.8573L90.9995 91.3691L106.165 99.8573C107.95 100.857 110.087 100.731 111.742 99.5282C113.397 98.3256 114.178 96.3318 113.779 94.3252L110.392 77.2793L123.152 65.4795C124.654 64.0907 125.194 62.0187 124.562 60.0728C123.93 58.127 122.275 56.7684 120.244 56.5274L102.985 54.4809L95.7059 38.6999C94.8489 36.8422 93.0456 35.688 90.9995 35.688C88.9534 35.688 87.1501 36.8422 86.2931 38.6999L79.0138 54.4813L61.7554 56.5277C59.7235 56.7687 58.0684 58.1273 57.4368 60.0732C56.8051 62.0183 57.3454 64.0903 58.8469 65.4792ZM81.2838 59.9886C82.2741 59.8713 83.1326 59.2474 83.5506 58.3421L90.9995 42.1927L98.4483 58.3421C98.8664 59.2474 99.7245 59.8713 100.715 59.9886L118.376 62.0827L105.319 74.1576C104.587 74.8348 104.259 75.8439 104.453 76.8222L107.919 94.2654L92.3997 85.5788C91.9646 85.3353 91.4819 85.2134 90.9988 85.2134C90.5157 85.2134 90.0333 85.335 89.5979 85.5788L74.0788 94.2654L77.5446 76.8222C77.7394 75.8436 77.4113 74.8348 76.6787 74.1576L63.6219 62.0827L81.2838 59.9886Z" fill="black"/>
</g>
<defs>
<filter id="filter0_d" x="-4" y="0" width="190" height="190" filterUnits="userSpaceOnUse" color-interpolation-filters="sRGB">
<feFlood flood-opacity="0" result="BackgroundImageFix"/>
<feColorMatrix in="SourceAlpha" type="matrix" values="0 0 0 0 0 0 0 0 0 0 0 0 0 0 0 0 0 0 127 0"/>
<feOffset dy="4"/>
<feGaussianBlur stdDeviation="2"/>
<feColorMatrix type="matrix" values="0 0 0 0 0 0 0 0 0 0 0 0 0 0 0 0 0 0 0.25 0"/>
<feBlend mode="normal" in2="BackgroundImageFix" result="effect1_dropShadow"/>
<feBlend mode="normal" in="SourceGraphic" in2="effect1_dropShadow" result="shape"/>
</filter>
<clipPath id="clip0">
<rect width="182" height="182" fill="white"/>
</clipPath>
</defs>
</svg>
