<svg width="195" height="199" viewBox="0 0 195 199" fill="none" xmlns="http://www.w3.org/2000/svg">
<g clip-path="url(#clip0)" filter="url(#filter0_d)">
<path d="M97.5004 127.077C114.94 127.077 129.078 112.939 129.078 95.4998C129.078 78.0602 114.94 63.9226 97.5004 63.9226C80.0608 63.9226 65.9232 78.0602 65.9232 95.4998C65.9232 112.939 80.0608 127.077 97.5004 127.077Z" fill="#FFD064"/>
<path d="M137.233 145.743L98.7485 145.804C94.1913 145.722 90.2903 149.055 89.6599 153.57C89.0526 157.916 91.6639 162.068 95.8439 163.403L135.808 158.514L137.233 145.743Z" fill="#EAAC9D"/>
<path d="M125.726 153.387L87.2418 153.448C82.6846 153.366 78.7836 156.699 78.1532 161.213C77.5459 165.559 80.1572 169.711 84.3372 171.047L124.301 166.158L125.726 153.387Z" fill="#FFCBBE"/>
<path d="M72.5146 175.001C73.605 176.874 75.3654 178.351 77.5601 179.051L86.3074 181.845L104.259 187.58C107.246 188.534 110.474 188.387 113.359 187.165L166.293 164.754L166.142 135.536C166.145 135.323 166.143 135.11 166.139 134.895C166.139 134.86 166.137 134.827 166.139 134.794L166.129 133.326C166.13 133.302 166.131 133.278 166.131 133.258L166.042 116.296L149.272 114.142C141.454 113.139 133.541 113.554 125.91 115.35C125.586 115.426 125.263 115.503 124.944 115.585C122.648 116.163 120.375 116.866 118.143 117.693L115.932 118.511C111.365 120.206 108.97 125.226 110.529 129.84C110.726 130.421 110.977 130.972 111.278 131.489C112.721 133.968 115.287 135.645 118.212 135.923L136.335 137.641L104.545 161.883L80.4661 161.452C75.9097 161.371 72.0095 164.704 71.379 169.218C71.0892 171.284 71.5275 173.305 72.5146 175.001Z" fill="#FFDDCE"/>
<path d="M86.307 181.845L104.258 187.58C107.246 188.534 110.473 188.387 113.359 187.165L166.293 164.755L166.142 135.537C165.915 169.403 96.1227 184.981 86.307 181.845Z" fill="#FFCBBE"/>
<path d="M166.129 133.326C166.126 133.808 166.129 134.296 166.138 134.795L166.129 133.326Z" fill="#FFCBBE"/>
<path d="M166.293 164.754L188.13 165.663L188.012 142.619L187.879 117.205L166.043 116.297L166.185 144.04L166.293 164.754Z" fill="#DB5B6F"/>
<path d="M166.293 164.754L188.13 165.663L188.012 142.619C177.141 150.143 166.185 144.04 166.185 144.04L166.293 164.754Z" fill="#D54653"/>
<path d="M57.7668 45.2564L96.2514 45.1952C100.809 45.2769 104.71 41.9441 105.34 37.4298C105.947 33.0838 103.336 28.9317 99.156 27.5962L59.1919 32.4854L57.7668 45.2564Z" fill="#EAAC9D"/>
<path d="M69.2736 37.6126L107.758 37.5514C112.315 37.6331 116.216 34.3003 116.847 29.786C117.454 25.44 114.843 21.2879 110.663 19.9524L70.6986 24.8416L69.2736 37.6126Z" fill="#FFCBBE"/>
<path d="M122.485 15.9986C121.395 14.1255 119.634 12.6482 117.44 11.948L108.692 9.15464L90.7412 3.41937C87.7535 2.46548 84.5262 2.61246 81.6407 3.83458L28.7064 26.2444L28.8579 55.4624C28.8545 55.6758 28.8571 55.8888 28.8605 56.1037C28.8605 56.1384 28.8627 56.172 28.8612 56.2044L28.8706 57.6731C28.8698 57.6966 28.8691 57.7205 28.8691 57.7406L28.9579 74.7025L45.7279 76.8568C53.5459 77.86 61.4587 77.4444 69.0898 75.6489C69.4136 75.5735 69.7363 75.4956 70.056 75.4135C72.3521 74.8357 74.6244 74.1325 76.8563 73.3054L79.0674 72.4873C83.635 70.7925 86.03 65.7728 84.4703 61.1585C84.2741 60.5777 84.0226 60.0263 83.7216 59.5093C82.2786 57.0307 79.7124 55.3535 76.7877 55.0752L58.6646 53.3581L90.4551 29.1154L114.534 29.5463C119.09 29.6276 122.99 26.2944 123.621 21.7805C123.91 19.7153 123.472 17.6941 122.485 15.9986Z" fill="#FFDDCE"/>
<path d="M108.692 9.15415L90.7412 3.41888C87.7535 2.46499 84.5262 2.61198 81.6407 3.83409L28.7064 26.2443L28.8579 55.4623C29.0847 21.5965 98.8771 6.01792 108.692 9.15415Z" fill="#FFCBBE"/>
<path d="M28.8708 57.6733C28.8738 57.1909 28.8708 56.7034 28.8615 56.2046L28.8708 57.6733Z" fill="#FFCBBE"/>
<path d="M28.707 26.2449L6.86975 25.3362L6.98763 48.3806L7.12007 73.7939L28.9573 74.7026L28.8148 46.9596L28.707 26.2449Z" fill="#80B4FB"/>
<path d="M28.7068 26.2449L6.86975 25.3362L6.98763 48.3804C17.859 40.8557 28.8146 46.9595 28.8146 46.9595L28.7068 26.2449Z" fill="#61A2F9"/>
<path d="M97.2318 120.758C98.7773 120.758 100.03 119.505 100.03 117.96V115.424C106.849 114.333 111.005 109.449 111.678 104.633C112.445 99.1465 108.91 94.4281 102.671 92.6121C98.5755 91.4198 94.0321 89.9702 91.3842 88.2601C89.9282 87.3197 90.0132 85.7644 90.1173 85.1392C90.3762 83.5854 91.639 81.681 94.4063 80.9946C95.4034 80.7473 96.3387 80.62 97.2079 80.5771C97.2157 80.5771 97.2235 80.5783 97.2314 80.5783C97.3284 80.5783 97.4239 80.5734 97.5183 80.5637C101.589 80.454 104.102 82.2145 104.266 82.3331C105.496 83.2515 107.238 83.0072 108.167 81.7832C109.102 80.5525 108.862 78.7977 107.631 77.8628C107.465 77.736 104.635 75.6387 100.029 75.0952V73.0408C100.029 71.4956 98.7765 70.2429 97.231 70.2429C95.6855 70.2429 94.4331 71.4956 94.4331 73.0408V75.2739C93.9832 75.3537 93.5259 75.4477 93.0584 75.5637C88.6109 76.6672 85.2897 80.0646 84.5969 84.2196C84.0105 87.7386 85.4471 91.0878 88.3472 92.9609C90.969 94.6549 94.6655 96.1102 101.106 97.9855C104.678 99.0256 106.511 101.166 106.135 103.859C105.707 106.917 102.506 110.028 97.215 110.057C92.8178 110.083 91.0828 109.919 87.3459 107.906C85.9847 107.173 84.2884 107.681 83.5557 109.042C82.8227 110.402 83.3312 112.099 84.6917 112.832C88.5233 114.896 91.0253 115.478 94.4328 115.615V117.96C94.4339 119.505 95.6862 120.758 97.2318 120.758Z" fill="black"/>
<path d="M190.677 117.191C190.67 115.697 189.489 114.472 187.996 114.41L166.279 113.507L149.628 111.367C142.296 110.425 134.824 110.699 127.581 112.137C128.187 111.041 128.741 109.915 129.228 108.752C129.824 107.327 129.152 105.688 127.727 105.091C126.3 104.495 124.662 105.167 124.066 106.593C122.882 109.424 121.259 112.025 119.25 114.34C118.553 114.573 117.86 114.815 117.172 115.07L114.961 115.89C111.821 117.054 109.475 119.381 108.237 122.205C104.824 123.578 101.22 124.28 97.5015 124.28C81.6324 124.28 68.7218 111.369 68.7218 95.5C68.7218 88.5437 71.2202 81.8825 75.7594 76.6553C76.4529 76.4237 77.1442 76.1849 77.8299 75.9305L80.0413 75.1102C83.1783 73.9474 85.5225 71.6218 86.7614 68.8004C90.1745 67.4235 93.78 66.7192 97.5012 66.7192C113.371 66.7192 126.282 79.6301 126.282 95.5C126.282 95.9902 126.271 96.4587 126.248 96.8926C126.168 98.4359 127.355 99.7516 128.898 99.8311C128.947 99.8333 128.996 99.8348 129.045 99.8348C130.524 99.8348 131.759 98.6754 131.837 97.1813C131.864 96.6516 131.878 96.086 131.878 95.5C131.878 76.5446 116.456 61.1234 97.5012 61.1234C94.1277 61.1234 90.8314 61.6039 87.6541 62.5552C87.5542 61.7889 87.3773 61.0201 87.1203 60.2576C86.3861 58.095 85.0551 56.2029 83.263 54.7812C81.4686 53.367 79.3217 52.506 77.0539 52.2907L66.0482 51.2462L70.2588 48.0357L96.2324 47.9936C96.2925 47.9943 96.3514 47.9951 96.4111 47.9951C101.375 47.9951 105.753 44.8588 107.46 40.349L107.737 40.3487C113.282 40.4408 118.098 36.6443 119.389 31.3649C123.061 29.7686 125.807 26.3574 126.392 22.1737C126.467 21.6413 126.505 21.0873 126.505 20.5274C126.505 15.3692 123.204 10.8501 118.292 9.28182L91.5932 0.755016C87.9746 -0.402931 84.0535 -0.224613 80.5509 1.25714L54.7508 12.18C53.328 12.7825 52.6624 14.4247 53.2653 15.8475C53.8678 17.271 55.511 17.9358 56.9324 17.3333L82.7317 6.41045C85.0025 5.44985 87.543 5.3342 89.8891 6.08478L116.589 14.6127C119.173 15.4371 120.909 17.8142 120.909 20.5274C120.909 20.8299 120.89 21.1116 120.85 21.394C120.421 24.4646 117.787 26.7476 114.697 26.7476C114.659 26.7476 114.621 26.7473 114.583 26.7465L90.5068 26.3175C89.8779 26.3086 89.2616 26.5081 88.7602 26.8901L56.9689 51.1309C56.0531 51.8293 55.6588 53.0174 55.9755 54.1246C56.2922 55.2322 57.2547 56.0324 58.4011 56.141L76.5238 57.8607C77.7183 57.9741 78.8502 58.4285 79.7906 59.1698C80.7311 59.9155 81.4324 60.9134 81.8189 62.0508C82.9007 65.2561 81.2656 68.6874 78.0947 69.8621L75.8833 70.6824C66.4089 74.194 56.1046 75.3691 46.0848 74.0824L31.7448 72.2384L31.6396 52.1561L31.5154 28.0947L46.6474 21.6898C48.0702 21.0873 48.7357 19.4456 48.1332 18.0227C47.5308 16.5996 45.8875 15.9352 44.4658 16.5369L28.1978 23.4234L6.98621 22.5411C6.21884 22.5083 5.47796 22.7918 4.92772 23.3227C4.37709 23.8535 4.06784 24.5866 4.07194 25.3513L4.32226 73.8086C4.33009 75.303 5.51079 76.5278 7.00374 76.5897L28.7246 77.4936L45.3708 79.6342C48.2425 80.0031 51.1355 80.1863 54.0282 80.1863C58.5178 80.1863 63.0056 79.7431 67.4091 78.8694C64.6161 83.916 63.1239 89.6211 63.1239 95.5003C63.1239 114.455 78.5446 129.876 97.4993 129.876C100.872 129.876 104.168 129.396 107.345 128.447C107.445 129.211 107.621 129.978 107.878 130.738C109.366 135.142 113.319 138.272 117.947 138.71L128.95 139.753L124.739 142.964L98.7669 143.006C93.7151 142.925 89.2627 146.086 87.5385 150.651L87.2617 150.651C87.1986 150.65 87.1356 150.65 87.0725 150.65C81.6051 150.65 76.8898 154.413 75.6113 159.629C71.9327 161.224 69.19 164.64 68.6047 168.832C67.8064 174.544 71.2146 179.963 76.7085 181.718L103.407 190.246C104.983 190.75 106.616 191 108.246 191C110.361 191 112.472 190.579 114.448 189.742L166.803 167.576L188.012 168.458C188.051 168.46 188.09 168.461 188.128 168.461C188.851 168.461 189.548 168.181 190.07 167.677C190.621 167.146 190.93 166.413 190.926 165.648L190.677 117.191ZM96.3011 42.3986C96.2831 42.3982 96.2641 42.396 96.2473 42.3982L77.6116 42.4284L80.2815 40.3927L100.996 40.3598C99.8234 41.6409 98.1335 42.4292 96.3011 42.3986ZM91.3798 31.9304L112.846 32.3132C111.677 33.8292 109.834 34.7813 107.81 34.7537C107.791 34.7533 107.772 34.7533 107.754 34.7533L87.6362 34.785L91.3798 31.9304ZM9.9042 71.1096L9.68261 28.254L25.9218 28.9292L26.0606 55.4161L26.1453 71.7848L9.9042 71.1096ZM98.5897 148.6C98.6263 148.6 98.6625 148.6 98.699 148.601C98.7169 148.601 98.7337 148.6 98.7527 148.601L117.388 148.571L114.719 150.607L94.0001 150.64C95.148 149.383 96.7939 148.6 98.5897 148.6ZM87.0752 156.245C87.1136 156.245 87.152 156.245 87.1904 156.246C87.2091 156.246 87.227 156.245 87.246 156.246L107.365 156.214L103.621 159.07L82.1487 158.685C83.2932 157.193 85.0883 156.245 87.0752 156.245ZM112.268 184.589C109.999 185.549 107.458 185.665 105.111 184.916L78.4129 176.387C75.5218 175.464 73.7282 172.612 74.1482 169.606C74.5772 166.534 77.2125 164.25 80.3032 164.25C80.3409 164.25 80.3782 164.25 80.4158 164.251L104.493 164.683C105.115 164.69 105.739 164.492 106.24 164.11L138.03 139.867C138.946 139.168 139.34 137.98 139.023 136.873C138.707 135.765 137.744 134.965 136.598 134.857L118.477 133.139C116.043 132.909 113.963 131.262 113.181 128.946C112.099 125.742 113.734 122.312 116.905 121.136L119.116 120.317C128.59 116.805 138.894 115.63 148.915 116.917L163.257 118.76L163.485 162.905L112.268 184.589ZM169.076 162.07L168.855 119.214L185.096 119.89L185.317 162.745L169.076 162.07Z" fill="black"/>
</g>
<defs>
<filter id="filter0_d" x="-2" y="0" width="199" height="199" filterUnits="userSpaceOnUse" color-interpolation-filters="sRGB">
<feFlood flood-opacity="0" result="BackgroundImageFix"/>
<feColorMatrix in="SourceAlpha" type="matrix" values="0 0 0 0 0 0 0 0 0 0 0 0 0 0 0 0 0 0 127 0"/>
<feOffset dy="4"/>
<feGaussianBlur stdDeviation="2"/>
<feColorMatrix type="matrix" values="0 0 0 0 0 0 0 0 0 0 0 0 0 0 0 0 0 0 0.25 0"/>
<feBlend mode="normal" in2="BackgroundImageFix" result="effect1_dropShadow"/>
<feBlend mode="normal" in="SourceGraphic" in2="effect1_dropShadow" result="shape"/>
</filter>
<clipPath id="clip0">
<rect width="191" height="191" fill="white" transform="translate(2)"/>
</clipPath>
</defs>
</svg>
