<svg width="16" height="16" viewBox="0 0 16 16" fill="none" xmlns="http://www.w3.org/2000/svg">
<path d="M13.311 2.78191C12.0895 1.01409 10.1537 0 8.00022 0C5.84675 0 3.9109 1.01409 2.68943 2.78191C1.47396 4.54078 1.19331 6.76756 1.93718 8.73491C2.13615 9.27216 2.45243 9.79412 2.875 10.2832L7.57431 15.8031C7.68059 15.928 7.83631 16 8.00022 16C8.16412 16 8.31984 15.928 8.42612 15.8031L13.1241 10.2847C13.5486 9.79281 13.8644 9.27141 14.0617 8.73847C14.8071 6.76756 14.5265 4.54078 13.311 2.78191ZM13.0141 8.34666C12.862 8.75784 12.6136 9.16438 12.2762 9.55541C12.2753 9.55634 12.2743 9.55728 12.2736 9.55841L8.00022 14.5777L3.72422 9.55525C3.38706 9.16456 3.13865 8.75806 2.985 8.34294C2.36981 6.71591 2.60328 4.87478 3.60972 3.41819C4.61931 1.95694 6.21968 1.11888 8.00022 1.11888C9.78072 1.11888 11.3809 1.95691 12.3905 3.41819C13.3972 4.87478 13.6308 6.71591 13.0141 8.34666Z" fill="white"/>
<path d="M8.00019 3.31934C6.27281 3.31934 4.86731 4.72465 4.86731 6.45221C4.86731 8.17977 6.27262 9.58509 8.00019 9.58509C9.72775 9.58509 11.1331 8.17977 11.1331 6.45221C11.1331 4.72484 9.72756 3.31934 8.00019 3.31934ZM8.00019 8.46618C6.88969 8.46618 5.98618 7.56268 5.98618 6.45218C5.98618 5.34168 6.88969 4.43818 8.00019 4.43818C9.11069 4.43818 10.0142 5.34168 10.0142 6.45218C10.0142 7.56268 9.11069 8.46618 8.00019 8.46618Z" fill="white"/>
</svg>
