<svg width="74" height="74" viewBox="0 0 74 74" fill="none" xmlns="http://www.w3.org/2000/svg">
<g clip-path="url(#clip0)">
<path d="M41.1102 34.3638L36.0223 33.2346C34.0869 32.7937 31.8591 32.2111 31.8591 30.3864C31.8591 28.5577 33.4219 27.2801 36.243 27.2801C41.9289 27.2801 41.4095 31.1875 44.2323 31.1875C45.7177 31.1875 47.018 30.3141 47.018 28.8123C47.018 25.308 41.4095 22.6782 36.6518 22.6782C31.4871 22.6782 25.987 24.8716 25.987 30.7133C25.987 33.5265 26.9919 36.5193 32.5281 37.9076L39.4024 39.6239C41.4829 40.1366 42.0034 41.3069 42.0034 42.3627C42.0034 44.1185 40.2594 45.8337 37.1001 45.8337C30.9287 45.8337 31.7852 41.0845 28.4779 41.0845C26.9919 41.0845 25.9136 42.1081 25.9136 43.5686C25.9136 46.4163 29.371 50.2165 37.1001 50.2165C44.4537 50.2165 48.0974 46.6721 48.0974 41.9252C48.0974 38.8601 46.6843 35.6059 41.1102 34.3638Z" fill="white"/>
<path d="M68.6631 0H5.33693C2.38928 0 0 2.38928 0 5.33693V68.6631C0 71.6107 2.38928 74 5.33693 74H68.6631C71.6107 74 74 71.6107 74 68.6631V5.33693C74 2.38928 71.6107 0 68.6631 0V0ZM56.2639 56.2091C53.8311 58.643 50.5984 59.9805 47.159 59.9805C44.9312 59.9805 42.7496 59.4012 40.8227 58.311C39.5722 58.5329 38.2912 58.6498 37.013 58.6498C34.0761 58.6498 31.2261 58.0739 28.5449 56.9374C25.9524 55.8444 23.6269 54.2743 21.6277 52.2763C19.6308 50.2788 18.0625 47.9533 16.9677 45.3619C15.8318 42.6791 15.2571 39.8308 15.2571 36.8933C15.2571 35.6354 15.37 34.3759 15.5845 33.1434C14.5271 31.2413 13.9642 29.0892 13.9642 26.8992C13.9642 23.4592 15.3045 20.2248 17.7361 17.7926C20.1689 15.3593 23.4033 14.0195 26.8433 14.0195C28.9503 14.0195 31.0324 14.5452 32.8831 15.5292C32.8865 15.5286 32.8905 15.5286 32.8933 15.5275C34.2426 15.2689 35.6286 15.1385 37.013 15.1385C39.9493 15.1385 42.7988 15.7138 45.4799 16.8481C48.0696 17.9439 50.3979 19.5123 52.3943 21.5098C54.3934 23.5078 55.9613 25.8344 57.0571 28.4252C58.193 31.1075 58.7678 33.9564 58.7678 36.8933C58.7678 38.2172 58.643 39.5423 58.4053 40.8369C59.4701 42.7462 60.0364 44.9057 60.0364 47.1031C60.0358 50.543 58.6972 53.778 56.2639 56.2091Z" fill="white"/>
</g>
<defs>
<clipPath id="clip0">
<rect width="74" height="74" fill="white"/>
</clipPath>
</defs>
</svg>
