<svg width="195" height="193" viewBox="0 0 195 193" fill="none" xmlns="http://www.w3.org/2000/svg">
<g clip-path="url(#clip0)" filter="url(#filter0_d)">
<path d="M115.408 150.686L74.1648 109.443C71.5796 106.858 71.5768 102.676 74.1563 100.097C75.1763 99.0769 76.4504 98.4592 77.7758 98.2509C79.7946 97.9242 81.9417 98.5419 83.504 100.104L72.8836 89.4853C71.5925 88.1927 70.9433 86.502 70.9448 84.8128C70.9448 84.4619 70.9733 84.108 71.0289 83.7556C71.2415 82.4288 71.8564 81.1576 72.8765 80.1375C73.8866 79.1274 75.1378 78.5154 76.4447 78.2985C78.2252 78.0018 80.0999 78.4355 81.5951 79.6011L77.5532 75.5593C76.2621 74.2681 75.6129 72.5703 75.6129 70.8811C75.6115 70.523 75.6415 70.1607 75.7014 69.8068C75.9125 68.49 76.5274 67.2245 77.5432 66.2087C78.5633 65.1886 79.8359 64.5723 81.167 64.3626C83.1858 64.0373 85.333 64.655 86.8952 66.2173L91.5234 70.8455C89.9626 69.2847 89.3434 67.1361 89.6687 65.1173C89.8785 63.7919 90.4919 62.5207 91.5149 61.4978C94.0929 58.9211 98.2789 58.9226 100.863 61.5063L127.665 88.3097L127.74 88.2027C129.098 86.8444 130.699 85.8786 132.407 85.3022C136.623 83.8826 141.472 84.8528 144.835 88.2155L157.333 100.713C159.735 103.116 161.082 106.37 161.088 109.763L161.095 117.581C161.098 121.235 162.552 124.74 165.14 127.328L167.927 130.115L136.051 161.99L132.49 158.429C130.121 156.061 126.971 154.634 123.631 154.416C120.528 154.212 117.608 152.888 115.408 150.686Z" fill="#FECBAA"/>
<path d="M133.979 164.06L170.159 127.88C171.351 126.688 173.284 126.688 174.476 127.88L187.362 140.765C188.553 141.958 188.553 143.889 187.362 145.082L151.181 181.263C149.988 182.454 148.056 182.454 146.863 181.263L133.979 168.377C132.786 167.186 132.786 165.253 133.979 164.06Z" fill="#FDD559"/>
<path d="M79.5863 150.691L120.829 109.448C123.414 106.863 123.416 102.681 120.836 100.101C119.816 99.0799 118.542 98.4636 117.218 98.2538C115.198 97.9286 113.052 98.5463 111.489 100.109L122.109 89.4882C123.4 88.1971 124.049 86.505 124.048 84.8158C124.048 84.4648 124.021 84.111 123.964 83.76C123.751 82.4332 123.136 81.162 122.116 80.1419C121.108 79.1318 119.855 78.5198 118.548 78.3029C116.767 78.0062 114.893 78.4399 113.398 79.6041L117.439 75.5622C118.731 74.2711 119.38 72.5747 119.38 70.8855C119.381 70.526 119.351 70.165 119.291 69.8112C119.08 68.4944 118.465 67.2275 117.449 66.2131C116.429 65.193 115.157 64.5752 113.827 64.3669C111.807 64.0416 109.661 64.658 108.097 66.2202L103.469 70.8484C105.03 69.289 105.649 67.1404 105.324 65.1202C105.116 63.7963 104.501 62.5251 103.478 61.5021C100.9 58.9241 96.7138 58.9269 94.1315 61.5093L67.3282 88.3126L67.2526 88.207C65.8943 86.8488 64.2936 85.883 62.5858 85.3066C58.3714 83.8856 53.5206 84.8572 50.1579 88.2199L37.6614 100.718C35.2589 103.12 33.9107 106.375 33.9064 109.767L33.8978 117.586C33.8964 121.241 32.4426 124.745 29.8546 127.333L27.0668 130.119L58.942 161.994L62.5045 158.433C64.8728 156.065 68.023 154.638 71.3629 154.42C74.4645 154.216 77.385 152.891 79.5863 150.691Z" fill="#FECBAA"/>
<path d="M61.0151 164.064L24.834 127.883C23.6413 126.691 21.7082 126.691 20.5169 127.883L7.63094 140.769C6.43965 141.961 6.43965 143.894 7.63094 145.086L43.812 181.266C45.0047 182.459 46.9364 182.459 48.1292 181.266L61.0151 168.382C62.2064 167.189 62.2064 165.256 61.0151 164.064Z" fill="#FF84A7"/>
<path d="M123.875 51.8476V110.174C123.875 113.83 120.921 116.788 117.271 116.788C115.829 116.788 114.492 116.324 113.406 115.535C111.748 114.337 110.667 112.384 110.667 110.174V125.193C110.667 127.019 109.929 128.674 108.735 129.868C108.487 130.116 108.217 130.346 107.928 130.554C106.839 131.343 105.507 131.807 104.064 131.807C102.636 131.807 101.318 131.355 100.239 130.584C98.7711 129.536 97.7524 127.903 97.5184 126.022V131.738C97.5184 133.565 96.7766 135.222 95.5824 136.417C95.3313 136.672 95.0531 136.906 94.7606 137.114C93.6792 137.896 92.3509 138.357 90.9143 138.357C89.4719 138.357 88.1351 137.892 87.0465 137.1C85.3887 135.901 84.3072 133.948 84.3072 131.738V125.193C84.3072 127.398 83.2258 129.357 81.568 130.554C80.4837 131.343 79.1497 131.807 77.7045 131.807C74.0593 131.807 71.1003 128.845 71.1003 125.193V87.2868L70.9719 87.3096C69.0516 87.3096 67.2354 86.8602 65.6218 86.0598C61.637 84.0839 58.8935 79.9678 58.8935 75.2127V57.5387C58.8935 54.1418 60.2417 50.8875 62.6371 48.4835L68.1599 42.9508C70.7422 40.3642 72.1917 36.8573 72.1917 33.1979V29.2573H117.271V34.2936C117.271 37.6434 118.491 40.8792 120.697 43.3959C122.747 45.7328 123.875 48.736 123.875 51.8476Z" fill="#FEDFC5"/>
<path d="M120.836 100.101C119.816 99.0799 118.542 98.4636 117.218 98.2538C115.198 97.9286 113.052 98.5463 111.49 100.109L122.11 89.4882C123.402 88.1971 124.049 86.505 124.049 84.8158C124.049 84.4648 124.021 84.111 123.964 83.76C123.753 82.4318 123.138 81.162 122.118 80.1419C121.107 79.1318 119.855 78.5198 118.548 78.3029C116.769 78.0062 114.894 78.4399 113.399 79.6041L117.441 75.5622C118.732 74.2711 119.38 72.5747 119.38 70.8855C119.383 70.526 119.351 70.165 119.291 69.8112C119.08 68.4944 118.465 67.2275 117.451 66.2131C116.431 65.193 115.157 64.5752 113.827 64.3669C111.807 64.0416 109.661 64.658 108.099 66.2202L103.471 70.8484C105.03 69.289 105.651 67.1404 105.324 65.1202C105.116 63.7963 104.501 62.5251 103.478 61.5021C100.9 58.9241 96.7138 58.9269 94.1315 61.5093L67.3281 88.3126L67.2525 88.207C65.8943 86.8488 64.2935 85.883 62.5858 85.3066C60.5641 84.6246 58.3956 84.5005 56.3154 84.9199C57.9918 87.4523 60.333 89.5524 63.1893 90.9691C63.9811 91.3615 64.7929 91.691 65.6204 91.9578V125.193C65.6204 131.861 71.0404 137.285 77.7031 137.285C78.5034 137.285 79.2938 137.208 80.0628 137.056C80.9231 138.813 82.2043 140.36 83.8207 141.528C84.8237 142.259 85.918 142.818 87.0693 143.206L120.828 109.446C123.414 106.863 123.417 102.681 120.836 100.101Z" fill="#FFAE85"/>
<path d="M129.349 110.174V86.8487C128.783 87.2454 128.242 87.6976 127.736 88.2041L127.662 88.3097L100.858 61.5063C98.276 58.924 94.0886 58.9212 91.512 61.4992C90.4891 62.5221 89.8742 63.7919 89.6645 65.1173C89.3392 67.1375 89.9598 69.2861 91.5192 70.8455L86.891 66.2173C85.3287 64.6551 83.183 64.0387 81.1628 64.364C79.8331 64.5723 78.5591 65.1901 77.539 66.2101C76.5246 67.2245 75.9097 68.4914 75.6971 69.8083C75.6386 70.1621 75.6072 70.5231 75.6101 70.8826C75.6101 72.5718 76.2578 74.2681 77.5504 75.5593L81.5922 79.6011C80.0956 78.4369 78.2209 78.0032 76.4418 78.3C75.135 78.5168 73.8823 79.1289 72.8722 80.139C71.8522 81.1591 71.2372 82.4288 71.0261 83.7571C70.969 84.1081 70.9405 84.4619 70.9405 84.8128C70.9405 86.5021 71.5882 88.1941 72.8794 89.4853L83.4997 100.106C81.9375 98.5434 79.7917 97.9256 77.7715 98.2509C76.4475 98.4606 75.1735 99.077 74.1534 100.097C71.5739 102.678 71.5768 106.86 74.162 109.445L101.791 137.074C102.533 137.215 103.292 137.287 104.061 137.287C106.621 137.287 109.069 136.493 111.129 135C111.656 134.62 112.152 134.197 112.606 133.743C114.887 131.463 116.143 128.427 116.143 125.194V122.217C116.515 122.251 116.89 122.268 117.268 122.268C123.929 122.266 129.349 116.842 129.349 110.174Z" fill="#FFAE85"/>
<path d="M123.875 51.8476V110.174C123.875 113.83 120.921 116.788 117.271 116.788C117.173 116.788 117.067 116.788 116.96 116.781C115.642 116.72 114.419 116.27 113.415 115.54C113.41 115.54 113.41 115.535 113.406 115.535C111.748 114.337 110.667 112.384 110.667 110.174V125.193C110.667 127.019 109.929 128.674 108.735 129.868C108.487 130.116 108.217 130.346 107.928 130.554C106.839 131.343 105.507 131.807 104.064 131.807C102.636 131.807 101.318 131.355 100.239 130.584C98.7711 129.536 97.7524 127.903 97.5184 126.022V131.738C97.5184 133.565 96.7766 135.222 95.5824 136.417C95.3313 136.672 95.0531 136.906 94.7606 137.114C93.6792 137.896 92.3509 138.357 90.9143 138.357C89.4719 138.357 88.1351 137.892 87.0465 137.1C85.3887 135.901 84.3072 133.948 84.3072 131.738V125.193C84.3072 127.398 83.2258 129.357 81.568 130.554C80.4837 131.343 79.1497 131.807 77.7045 131.807C74.0593 131.807 71.1003 128.845 71.1003 125.193V87.2868L70.9719 87.3096C69.0516 87.3096 67.2354 86.8602 65.6218 86.0598C61.637 84.0839 58.8935 79.9678 58.8935 75.2127V57.5387C58.8935 54.1418 60.2417 50.8875 62.6371 48.4835L68.1599 42.9508C69.7564 41.35 70.922 39.3997 71.5754 37.2739C71.9849 35.9599 72.1917 34.5746 72.1917 33.1979V29.2573H117.271V34.2936C117.271 35.4221 117.391 36.6134 117.706 37.7019C118.231 39.7949 119.254 41.7481 120.697 43.3959C122.728 45.7157 123.875 48.7574 123.875 51.8476Z" fill="#FEDFC5"/>
<path d="M123.875 51.8476V110.174C123.875 113.83 120.921 116.788 117.271 116.788C117.173 116.788 117.067 116.788 116.96 116.781C115.642 116.72 114.419 116.27 113.415 115.54L113.527 59.3349C113.527 58.9954 113.45 58.459 113.308 57.7756C110.788 45.5003 100.426 37.2739 87.8939 37.2739H71.5754C71.9848 35.9599 72.1917 34.5746 72.1917 33.1979V29.2573H117.271V34.2936C117.271 35.4221 117.391 36.6134 117.706 37.7019C118.231 39.7949 119.254 41.7481 120.697 43.3959C122.728 45.7157 123.875 48.7574 123.875 51.8476Z" fill="#FECBAA"/>
<path d="M120.2 29.2589H69.0316C67.3467 29.2589 65.9799 27.8922 65.9799 26.2058V7.98404C65.9799 6.29768 67.3467 4.93091 69.0316 4.93091H120.2C121.885 4.93091 123.252 6.29768 123.252 7.98404V26.2058C123.252 27.8922 121.885 29.2589 120.2 29.2589Z" fill="#83D9FF"/>
<path d="M80.8303 165.775L80.2811 168.459L80.8104 165.772C79.3266 165.48 77.8856 166.446 77.5932 167.929C77.3007 169.415 78.2666 170.854 79.7518 171.147C79.756 171.148 79.7974 171.155 79.8017 171.157C79.9758 171.189 80.1484 171.206 80.3196 171.206C81.6079 171.206 82.7564 170.293 83.0061 168.981C83.2914 167.494 82.317 166.059 80.8303 165.775Z" fill="black"/>
<path d="M101.774 166.655L102.047 169.38L101.766 166.657C100.26 166.811 99.1662 168.156 99.3217 169.661C99.4658 171.071 100.656 172.121 102.042 172.121C102.137 172.121 102.232 172.115 102.326 172.107L102.402 172.098C103.9 171.923 104.963 170.572 104.796 169.074C104.628 167.577 103.272 166.498 101.774 166.655Z" fill="black"/>
<path d="M91.288 167C91.288 167 91.2495 166.999 91.2481 166.999C89.7386 166.93 88.4774 168.103 88.4089 169.614C88.3419 171.125 89.5289 172.405 91.0398 172.473C91.0826 172.476 91.1239 172.476 91.1667 172.476C92.622 172.476 93.8347 171.33 93.9003 169.861C93.9688 168.35 92.8003 167.069 91.288 167Z" fill="black"/>
<path d="M70.7123 162.991L70.678 162.978C69.2542 162.468 67.7019 163.212 67.1912 164.636C66.679 166.06 67.4351 167.635 68.859 168.147C69.1657 168.257 69.4782 168.309 69.7849 168.309C70.9077 168.309 71.962 167.614 72.3629 166.495C72.8751 165.071 72.1361 163.502 70.7123 162.991Z" fill="black"/>
<path d="M112.112 164.738L112.787 167.393L112.103 164.74C110.638 165.117 109.757 166.611 110.133 168.076C110.451 169.312 111.564 170.133 112.784 170.133C113.011 170.133 113.241 170.105 113.47 170.045C113.482 170.042 113.53 170.029 113.543 170.026C114.997 169.63 115.847 168.136 115.459 166.679C115.071 165.224 113.572 164.358 112.112 164.738Z" fill="black"/>
<path d="M122.015 161.284L123.1 163.797L122.006 161.286C120.619 161.891 119.985 163.505 120.588 164.892C121.037 165.923 122.045 166.538 123.102 166.538C123.466 166.538 123.838 166.464 124.193 166.31C124.205 166.304 124.249 166.286 124.26 166.28C125.634 165.659 126.241 164.05 125.627 162.673C125.014 161.295 123.396 160.677 122.015 161.284Z" fill="black"/>
<path d="M60.2488 36.4138C60.6883 36.4138 61.1348 36.3082 61.5471 36.0885C62.8825 35.3766 63.3862 33.7173 62.6742 32.3819C61.9623 31.048 60.3045 30.5415 58.9691 31.2548L58.9363 31.272C57.6023 31.9839 57.113 33.6346 57.8249 34.97C58.3157 35.8916 59.2687 36.4138 60.2488 36.4138Z" fill="black"/>
<path d="M28.5634 67.0092C28.97 67.2218 29.4052 67.3231 29.8346 67.3231C30.8204 67.3231 31.7735 66.7895 32.2628 65.855L32.3113 65.7594C32.979 64.4012 32.4198 62.759 31.0616 62.0928C29.7133 61.4279 28.084 61.9758 27.4078 63.3155C26.7087 64.6537 27.2252 66.3072 28.5634 67.0092Z" fill="black"/>
<path d="M24.707 77.3141C24.9981 77.4126 25.2934 77.4597 25.5859 77.4597C26.7273 77.4597 27.793 76.7392 28.1796 75.5978L28.2153 75.4894C28.6604 74.0442 27.8486 72.5105 26.402 72.0668C24.9681 71.6245 23.4458 72.4206 22.9879 73.8473C22.5071 75.2782 23.2761 76.8305 24.707 77.3141Z" fill="black"/>
<path d="M33.9677 57.4261C34.4542 57.7799 35.0178 57.9511 35.577 57.9511C36.4231 57.9511 37.2591 57.5588 37.7941 56.8226L37.8298 56.7741C38.7086 55.5443 38.4219 53.838 37.1949 52.9591C35.9665 52.0788 34.2545 52.3613 33.3728 53.5883L35.5799 55.2119L33.3642 53.5997C32.474 54.8238 32.745 56.5373 33.9677 57.4261Z" fill="black"/>
<path d="M50.9497 42.3301C51.5246 42.3301 52.1039 42.1489 52.5989 41.7723C53.8202 40.8792 54.0841 39.1657 53.191 37.9445C52.2965 36.7232 50.583 36.4593 49.3632 37.3524L49.2947 37.4023C48.0906 38.3168 47.8509 40.0388 48.7654 41.2444C49.3047 41.9549 50.1222 42.3301 50.9497 42.3301Z" fill="black"/>
<path d="M22.2617 118.857C22.6241 120.034 23.7055 120.788 24.8754 120.788C25.1422 120.788 25.4147 120.748 25.6829 120.666C27.121 120.225 27.9328 118.701 27.5019 117.26C27.0896 115.822 25.5987 114.977 24.1478 115.373C22.6883 115.771 21.828 117.277 22.226 118.737C22.2346 118.765 22.2531 118.828 22.2617 118.857Z" fill="black"/>
<path d="M42.6748 49.5493C43.3868 49.5493 44.0987 49.2739 44.6366 48.7261C45.7052 47.656 45.7052 45.9212 44.6366 44.8526C43.5665 43.7825 41.8317 43.7825 40.7616 44.8526L40.716 44.8982C39.6574 45.9782 39.6788 47.7102 40.7588 48.7689C41.2909 49.291 41.9829 49.5493 42.6748 49.5493Z" fill="black"/>
<path d="M25.2891 106.914C25.0965 105.426 23.7369 104.37 22.2474 104.547C20.7465 104.727 19.6737 106.089 19.852 107.592L19.8677 107.701C20.0674 109.062 21.2359 110.038 22.5727 110.038C22.704 110.038 22.8381 110.028 22.9736 110.008C24.4645 109.791 25.4989 108.405 25.2891 106.914Z" fill="black"/>
<path d="M21.848 99.0684C21.8765 99.0684 21.9036 99.0698 21.9307 99.0698C23.4059 99.0698 24.6243 97.8956 24.6671 96.4104L24.67 96.2935C24.67 94.7797 23.443 93.5542 21.9307 93.5542C20.4284 93.5542 19.21 94.7612 19.1914 96.2578C19.1515 97.7672 20.3399 99.0242 21.848 99.0684Z" fill="black"/>
<path d="M22.4486 88.0828C22.6127 88.1113 22.7739 88.1256 22.9351 88.1256C24.2363 88.1256 25.3905 87.194 25.6287 85.8686C25.6358 85.8286 25.6416 85.7887 25.6473 85.7487C25.8684 84.2521 24.834 82.8597 23.336 82.6399C21.8565 82.4202 20.4712 83.4375 20.2329 84.9127C19.9733 86.3993 20.9634 87.816 22.4486 88.0828Z" fill="black"/>
<path d="M151.664 58.2906C152.195 59.061 153.048 59.4733 153.918 59.4733C154.453 59.4733 154.996 59.3164 155.469 58.9896C156.715 58.1336 157.03 56.4273 156.174 55.1804L153.897 56.7041L156.166 55.1675C155.315 53.9149 153.612 53.5882 152.361 54.4371C151.108 55.2859 150.781 56.9894 151.63 58.2421L151.664 58.2906Z" fill="black"/>
<path d="M165.653 85.8557C164.149 86.0241 163.068 87.3809 163.238 88.8846L163.252 89.003C163.447 90.3684 164.62 91.3542 165.961 91.3542C166.09 91.3542 166.221 91.3457 166.352 91.3271C167.837 91.1145 168.873 89.7463 168.68 88.2626C168.508 86.7631 167.147 85.6874 165.653 85.8557Z" fill="black"/>
<path d="M161.031 78.1258L161.042 78.1615C161.393 79.3557 162.484 80.1289 163.669 80.1289C163.924 80.1289 164.184 80.0933 164.442 80.0162C165.894 79.5896 166.724 78.0673 166.298 76.615L166.286 76.5793C165.86 75.1269 164.338 74.2966 162.885 74.7246C161.434 75.1512 160.604 76.6735 161.031 78.1258Z" fill="black"/>
<path d="M157.161 67.8838C157.639 68.8554 158.617 69.4217 159.632 69.4217C160.036 69.4217 160.447 69.3319 160.834 69.1407C162.19 68.473 162.754 66.8409 162.085 65.4826L159.602 66.6397L162.082 65.4769C161.44 64.1073 159.809 63.5181 158.44 64.1601C157.07 64.8021 156.479 66.4328 157.121 67.8024L157.161 67.8838Z" fill="black"/>
<path d="M144.765 49.736C145.301 50.2839 146.01 50.5578 146.721 50.5578C147.413 50.5578 148.105 50.2982 148.638 49.7746C149.711 48.7245 149.735 47.0082 148.701 45.9268C147.675 44.8211 145.946 44.754 144.836 45.7784C143.725 46.8042 143.656 48.5376 144.682 49.649L144.765 49.736Z" fill="black"/>
<path d="M166.543 97.2936C165.038 97.2551 163.778 98.435 163.726 99.9402C163.657 101.44 164.808 102.717 166.309 102.801C166.362 102.804 166.412 102.805 166.465 102.805C167.907 102.805 169.116 101.676 169.197 100.217L169.201 100.104C169.244 98.5934 168.054 97.3379 166.543 97.2936Z" fill="black"/>
<path d="M127.248 36.2853L127.313 36.321C127.721 36.5379 128.159 36.6406 128.59 36.6406C129.565 36.6406 130.508 36.1156 131.003 35.1954C131.716 33.8671 131.214 32.2064 129.89 31.4874L128.565 33.8842L129.882 31.4817C128.555 30.7541 126.89 31.2406 126.162 32.5674C125.436 33.8928 125.921 35.5592 127.248 36.2853Z" fill="black"/>
<path d="M136.513 42.2932L136.556 42.326C137.051 42.7013 137.631 42.8824 138.209 42.8824C139.037 42.8824 139.854 42.5087 140.393 41.7982C141.308 40.5926 141.071 38.8749 139.867 37.9603L139.848 37.9475C138.649 37.0259 136.929 37.2513 136.008 38.4511C135.086 39.651 135.313 41.3716 136.513 42.2932Z" fill="black"/>
<path d="M189.309 138.764L176.451 125.882C175.356 124.786 173.902 124.183 172.354 124.183C170.808 124.183 169.353 124.786 168.26 125.882L167.962 126.18L167.117 125.336C166.074 124.29 165.267 123.073 164.719 121.747C164.67 121.572 164.606 121.401 164.523 121.24C164.104 120.061 163.886 118.807 163.886 117.519V113.875C164.135 114.006 164.408 114.102 164.7 114.152C164.857 114.179 165.013 114.192 165.167 114.192C166.467 114.192 167.616 113.264 167.858 111.946C168.15 110.465 167.19 109.026 165.708 108.729C165.056 108.599 164.411 108.712 163.869 109.006C163.7 105.114 162.109 101.478 159.342 98.7048L146.867 86.2084C144.067 83.4049 140.345 81.8613 136.386 81.8613C133.322 81.8613 130.402 82.79 127.94 84.5092L126.616 83.1781V51.8478C126.616 48.0714 125.245 44.4276 122.757 41.5899C120.986 39.5725 120.012 36.9817 120.012 34.2938V31.9982H120.2C123.393 31.9982 125.991 29.4002 125.991 26.2058V7.98404C125.991 4.78967 123.393 2.19165 120.2 2.19165H69.0317C65.8387 2.19165 63.2407 4.78967 63.2407 7.98404V26.2058C63.2407 29.4002 65.8387 31.9982 69.0317 31.9982H69.454V33.1995C69.454 36.1527 68.3055 38.9291 66.2211 41.0163L60.6984 46.5491C57.7679 49.4852 56.1543 53.3872 56.1543 57.5389V75.2114C56.1543 77.6125 56.7307 79.8796 57.7451 81.8884C54.1127 82.0981 50.7272 83.6118 48.1334 86.2084L35.6584 98.7048C32.728 101.641 31.1144 105.544 31.1144 109.695V117.519C31.1144 120.472 29.9673 123.248 27.8829 125.336L27.0483 126.172C27.044 126.174 27.0412 126.177 27.0383 126.18L26.7416 125.882C25.6473 124.786 24.1935 124.183 22.6455 124.183C21.099 124.183 19.6437 124.786 18.5509 125.882L5.69064 138.764C3.43646 141.022 3.43646 144.697 5.69064 146.956L10.0949 151.366C11.1634 152.437 12.8983 152.439 13.9683 151.37C15.0384 150.3 15.0412 148.566 13.9712 147.495L9.5684 143.084C9.44428 142.96 9.44428 142.758 9.5684 142.634L22.4286 129.753C22.5485 129.633 22.7439 129.631 22.8638 129.753L25.0994 131.993H25.1008L55.6279 162.572L59.0477 165.999C59.1718 166.123 59.1718 166.325 59.0477 166.449L46.1889 179.33C46.0676 179.452 45.8721 179.452 45.7523 179.33L21.7267 155.263C20.6581 154.192 18.9233 154.191 17.8532 155.259C16.7818 156.329 16.7804 158.063 17.8489 159.134L41.8759 183.201C42.9688 184.297 44.424 184.9 45.972 184.9C47.5185 184.9 48.9723 184.297 50.0666 183.201L62.9254 170.319C65.1796 168.062 65.1796 164.387 62.9254 162.129L62.7856 161.989L64.4078 160.364C66.3024 158.465 68.8191 157.324 71.4942 157.151C75.2592 156.907 78.8017 155.3 81.4682 152.628L93.2813 140.79C96.6882 139.895 99.3404 137.12 100.061 133.645C101.275 134.222 102.632 134.548 104.064 134.548C109.216 134.548 113.408 130.352 113.408 125.193V118.689C114.586 119.226 115.894 119.529 117.273 119.529C122.424 119.529 126.615 115.333 126.615 110.174V90.945L135.041 99.4125C135.576 99.9503 136.279 100.219 136.982 100.219C137.681 100.219 138.381 99.9532 138.916 99.421C139.987 98.3539 139.991 96.6204 138.924 95.5476L131.899 88.4883C133.259 87.7392 134.791 87.3398 136.386 87.3398C138.88 87.3398 141.225 88.3128 142.989 90.0805L155.464 102.575C157.361 104.477 158.407 107.005 158.407 109.695V117.519C158.407 121.934 160.123 126.085 163.239 129.206L164.09 130.058L160.116 134.038L136.085 158.111L134.745 156.769C134.731 156.756 134.718 156.741 134.704 156.729L134.469 156.492C131.632 153.651 127.864 151.943 123.861 151.684C121.426 151.525 119.134 150.487 117.401 148.752L108.4 139.799C107.327 138.732 105.592 138.737 104.525 139.809C103.459 140.882 103.464 142.617 104.536 143.683L113.532 152.628C116.198 155.3 119.741 156.907 123.507 157.151C126.181 157.324 128.698 158.465 130.592 160.362L130.725 160.495C130.796 160.576 130.872 160.652 130.952 160.723L132.214 161.987L132.075 162.129C129.82 164.387 129.82 168.061 132.075 170.319L144.933 183.201C146.028 184.297 147.481 184.9 149.029 184.9C150.576 184.9 152.031 184.297 153.125 183.201L189.309 146.954C191.564 144.696 191.564 141.022 189.309 138.764ZM165.722 111.525L165.67 111.517L165.171 111.415L165.722 111.525ZM77.5905 148.758C75.8656 150.487 73.5743 151.525 71.1404 151.684C67.1356 151.943 63.3677 153.651 60.5314 156.492L58.915 158.111L57.4598 156.653C57.4412 156.634 57.4227 156.614 57.4041 156.597L30.9104 130.058L31.7607 129.206C34.8766 126.085 36.5929 121.934 36.5929 117.519V109.695C36.5929 107.005 37.6372 104.477 39.5362 102.575L52.0112 90.0805C53.7746 88.3128 56.1201 87.3398 58.614 87.3398C60.2133 87.3398 61.7513 87.7421 63.1152 88.4968L56.0787 95.5447C55.0101 96.6147 55.0115 98.3496 56.0816 99.4182C56.6166 99.9518 57.3171 100.219 58.0176 100.219C58.7195 100.219 59.4215 99.9503 59.9565 99.4153L68.3611 90.995V125.193C68.3611 130.352 72.5528 134.548 77.7046 134.548C79.157 134.548 80.5323 134.214 81.7593 133.62C82.3157 136.335 84.0505 138.624 86.4017 139.928L77.5905 148.758ZM121.138 110.175C121.138 112.313 119.403 114.052 117.273 114.052C115.141 114.052 113.408 112.313 113.408 110.175V79.6199C113.408 78.1076 112.182 76.8807 110.668 76.8807C109.155 76.8807 107.929 78.1076 107.929 79.6199V125.194C107.929 127.332 106.196 129.069 104.064 129.069C102.151 129.069 100.563 127.668 100.256 125.835V79.5885C100.256 78.0748 99.0308 76.8493 97.5171 76.8493C97.0306 76.8493 96.5727 76.9777 96.176 77.2002C95.31 77.6611 94.7208 78.5713 94.7208 79.6199V125.193C94.7208 125.541 94.7408 125.882 94.7779 126.22V131.74C94.7779 133.877 93.0444 135.616 90.9129 135.616C88.7829 135.616 87.0494 133.877 87.0494 131.74V79.5557C87.0494 78.0434 85.8225 76.8165 84.3102 76.8165C82.7965 76.8165 81.5695 78.0434 81.5695 79.5557V125.193C81.5695 127.33 79.8361 129.069 77.706 129.069C75.5745 129.069 73.8411 127.33 73.8411 125.193V74.2384C73.8411 72.7247 72.6141 71.4977 71.1018 71.4977C69.5881 71.4977 68.3626 72.7247 68.3626 74.2384V83.6632C68.1329 83.7374 67.9103 83.8415 67.7034 83.9785C64.161 82.6474 61.6328 79.2204 61.6328 75.2114V57.5389C61.6328 54.8496 62.6786 52.3215 64.5761 50.4197L70.0989 44.887C73.2162 41.7654 74.9325 37.6151 74.9325 33.1995V31.9982H80.4396C81.9533 31.9982 83.1788 30.7712 83.1788 29.2589C83.1788 27.7452 81.9533 26.5197 80.4396 26.5197H69.0317C68.8591 26.5197 68.7192 26.3784 68.7192 26.2058V7.98404C68.7192 7.81141 68.8591 7.67017 69.0317 7.67017H120.199C120.373 7.67017 120.513 7.81141 120.513 7.98404V26.2058C120.513 26.3799 120.373 26.5197 120.199 26.5197H93.2998C91.7875 26.5197 90.5606 27.7452 90.5606 29.2589C90.5606 30.7712 91.7875 31.9982 93.2998 31.9982H114.533V34.2938C114.533 38.3113 115.99 42.1848 118.637 45.2037C120.249 47.0413 121.138 49.401 121.138 51.8478V110.175ZM185.432 143.084L149.248 179.33C149.188 179.392 149.115 179.422 149.029 179.422C148.945 179.422 148.873 179.392 148.811 179.33L135.952 166.449C135.828 166.325 135.828 166.123 135.952 165.999L138.022 163.925L138.024 163.923L159.029 142.883L172.136 129.753C172.256 129.631 172.452 129.631 172.571 129.753L185.432 142.634C185.556 142.758 185.556 142.96 185.432 143.084Z" fill="black"/>
<path d="M77.7045 14.1729C76.0966 14.1729 74.7883 15.484 74.7883 17.0947C74.7883 18.7069 76.0966 20.0166 77.7045 20.0166C79.3138 20.0166 80.6221 18.7069 80.6221 17.0947C80.6221 15.484 79.3138 14.1729 77.7045 14.1729Z" fill="black"/>
<path d="M173.25 139.04C171.641 139.04 170.333 140.351 170.333 141.962C170.333 143.573 171.641 144.884 173.25 144.884C174.858 144.884 176.166 143.573 176.166 141.962C176.166 140.351 174.858 139.04 173.25 139.04Z" fill="black"/>
<path d="M49.6485 166.986C49.6485 165.375 48.3402 164.064 46.7324 164.064C45.123 164.064 43.8148 165.375 43.8148 166.986C43.8148 168.597 45.123 169.908 46.7324 169.908C48.3402 169.908 49.6485 168.597 49.6485 166.986Z" fill="black"/>
</g>
<defs>
<filter id="filter0_d" x="0" y="0" width="195" height="195" filterUnits="userSpaceOnUse" color-interpolation-filters="sRGB">
<feFlood flood-opacity="0" result="BackgroundImageFix"/>
<feColorMatrix in="SourceAlpha" type="matrix" values="0 0 0 0 0 0 0 0 0 0 0 0 0 0 0 0 0 0 127 0"/>
<feOffset dy="4"/>
<feGaussianBlur stdDeviation="2"/>
<feColorMatrix type="matrix" values="0 0 0 0 0 0 0 0 0 0 0 0 0 0 0 0 0 0 0.25 0"/>
<feBlend mode="normal" in2="BackgroundImageFix" result="effect1_dropShadow"/>
<feBlend mode="normal" in="SourceGraphic" in2="effect1_dropShadow" result="shape"/>
</filter>
<clipPath id="clip0">
<rect width="187" height="187" fill="white" transform="translate(4)"/>
</clipPath>
</defs>
</svg>
