<svg width="99" height="99" viewBox="0 0 99 99" fill="none" xmlns="http://www.w3.org/2000/svg">
<path d="M37.3139 40.9038C41.0703 40.9038 44.1155 37.8587 44.1155 34.1023C44.1155 30.3459 41.0703 27.3008 37.3139 27.3008C33.5576 27.3008 30.5124 30.3459 30.5124 34.1023C30.5124 37.8587 33.5576 40.9038 37.3139 40.9038Z" fill="#B0B0B0"/>
<path d="M93.1431 59.1355C89.9313 56.1126 85.8693 54.1288 81.4294 53.5621V18.9876C81.4294 15.3035 79.9179 11.9972 77.5563 9.54106C75.1002 7.08495 71.7939 5.66797 68.1097 5.66797H13.3197C9.6355 5.66797 6.3292 7.17942 3.87309 9.54106C1.41698 11.9972 0 15.3035 0 18.9876V62.5363V66.5983V75.3836C0 79.0678 1.51145 82.3741 3.87309 84.8302C6.3292 87.2863 9.6355 88.7033 13.3197 88.7033H66.3149C69.8101 91.5372 74.1555 93.3321 78.9733 93.3321C84.5468 93.3321 89.5534 91.0649 93.1431 87.4752C96.7328 83.8855 99 78.8788 99 73.3054C99 67.7319 96.7328 62.7252 93.1431 59.1355ZM5.00668 18.9876C5.00668 16.7205 5.95134 14.6422 7.46279 13.2252C8.97424 11.7138 11.0525 10.7691 13.3197 10.7691H68.1097C70.3769 10.7691 72.4552 11.7138 73.9666 13.2252C75.4781 14.7367 76.4227 16.8149 76.4227 19.0821V48.5554L62.4418 34.5745C61.4971 33.6298 59.8912 33.5353 58.8521 34.5745L37.7863 55.7348L23.5219 41.376C22.5773 40.4313 20.9714 40.3369 19.9323 41.376L5.00668 56.4905V18.9876ZM13.2252 83.8855V83.6966C10.958 83.6966 8.87977 82.7519 7.36832 81.2405C5.95134 79.729 5.00668 77.6508 5.00668 75.3836V66.5983V63.6699L21.7271 46.855L35.9914 61.1193C36.9361 62.064 38.542 62.064 39.5811 61.1193L60.6469 39.959L74.4389 53.8455C74.1555 53.9399 73.8721 54.0344 73.5887 54.1288C73.2109 54.2233 72.833 54.3178 72.3607 54.5067C71.9828 54.6012 71.605 54.7901 71.2271 54.8846C70.9437 54.979 70.7548 55.0735 70.4714 55.2624C70.0935 55.4514 69.8101 55.5458 69.5267 55.7348C69.0544 56.0182 68.5821 56.3016 68.1097 56.585C67.8263 56.7739 67.6374 56.8684 67.354 57.0573C67.1651 57.1517 67.0706 57.2462 66.8817 57.3407C66.0315 57.9075 65.2758 58.5687 64.6145 59.3245C61.0248 62.9142 58.7576 67.9208 58.7576 73.4943C58.7576 74.9113 58.9466 76.2338 59.23 77.6508C59.3244 78.0287 59.4189 78.3121 59.5134 78.6899C59.7968 79.6346 60.0802 80.5792 60.458 81.5239V81.6184C60.8359 82.3741 61.2137 83.2243 61.6861 83.8855H13.2252ZM89.459 83.8855C86.7195 86.625 83.0353 88.2309 78.8788 88.2309C74.9113 88.2309 71.2271 86.625 68.5821 84.0745C68.2042 83.6966 67.8263 83.2243 67.4485 82.8464C67.1651 82.563 66.8817 82.1851 66.5983 81.9017C66.2204 81.4294 65.937 80.8626 65.6536 80.2958C65.4647 79.918 65.2758 79.6346 65.0868 79.2567C64.8979 78.7844 64.709 78.2176 64.6145 77.6508C64.52 77.2729 64.3311 76.8006 64.2366 76.4227C64.0477 75.4781 63.9532 74.439 63.9532 73.3998C63.9532 69.2433 65.6536 65.5592 68.2987 62.8197C70.9437 60.0802 74.7223 58.4743 78.8788 58.4743C83.0353 58.4743 86.7195 60.1746 89.459 62.8197C92.1985 65.5592 93.8044 69.2433 93.8044 73.3998C93.8044 77.4619 92.104 81.146 89.459 83.8855Z" fill="#B0B0B0"/>
<path d="M80.6736 63.1971C80.4847 63.0082 80.2013 62.8193 79.8235 62.6303C79.5401 62.5359 79.2567 62.4414 78.9733 62.4414C78.8788 62.4414 78.8788 62.4414 78.8788 62.4414C78.7843 62.4414 78.7843 62.4414 78.7843 62.4414C78.5009 62.4414 78.2175 62.5359 77.9341 62.6303C77.6507 62.7248 77.3673 62.9137 77.0839 63.1971L71.2271 69.054C70.2824 69.9987 70.2824 71.6046 71.2271 72.6437C72.1717 73.5884 73.7776 73.5884 74.8168 72.6437L76.3282 71.1322V81.5235C76.3282 82.9405 77.4618 84.074 78.8788 84.074C80.2958 84.074 81.4294 82.9405 81.4294 81.5235V71.1322L82.9408 72.6437C83.8855 73.5884 85.4914 73.5884 86.5305 72.6437C87.4752 71.699 87.4752 70.0931 86.5305 69.054L80.6736 63.1971Z" fill="#B0B0B0"/>
</svg>
