<svg width="81" height="81" viewBox="0 0 81 81" fill="none" xmlns="http://www.w3.org/2000/svg">
<g clip-path="url(#clip0)">
<path d="M12.0823 71.5365H60.2064L57.908 64.0946L63.4059 68.8129L68.4448 73.3286L77.6248 81V8.35312C77.3953 3.83737 73.5073 0 68.6878 0L12.0991 0.010125C7.28301 0.010125 3.37476 3.85425 3.37476 8.37V63.18C3.37476 67.9421 7.27626 71.5365 12.0823 71.5365ZM47.6818 19.1801L47.5704 19.2206L47.6109 19.1801H47.6818ZM21.9271 23.463C28.1135 18.9608 33.8476 19.1768 33.8476 19.1768L34.31 19.6324C26.7399 21.438 23.3075 24.8197 23.3075 24.8197C23.3075 24.8197 24.2255 24.3709 25.8286 23.6858C36.0245 19.6763 47.1586 19.9665 57.4659 25.0425C57.4659 25.0425 54.0268 21.8801 46.9224 19.8551L47.5501 19.2375C48.5323 19.2409 53.7298 19.4231 59.2918 23.49C59.2918 23.49 65.5153 34.1213 65.5153 47.1825C65.3094 46.9327 61.6543 52.8053 52.2481 53.0078C52.2481 53.0078 50.6551 51.2055 49.5211 49.6328C55.0224 48.0532 57.0811 44.8942 57.0811 44.8942C55.2755 46.0316 53.6285 46.7066 52.292 47.3816C50.2366 48.2861 48.1779 48.7316 46.1225 49.1873C36.389 50.7668 30.9249 48.1241 25.7611 46.0282L23.996 45.1305C23.996 45.1305 26.0514 48.2895 31.3333 49.869C29.9461 51.4519 28.5725 53.2507 28.5725 53.2507C19.1698 53.028 15.7408 47.1555 15.7408 47.1555C15.7408 34.074 21.9271 23.463 21.9271 23.463Z" fill="white"/>
<path d="M48.2895 43.1019C50.6892 43.1019 52.6433 41.0769 52.6433 38.5794C52.6433 36.0987 50.6993 34.0737 48.2895 34.0737V34.0839C45.9 34.0839 43.9425 36.1021 43.9358 38.5996C43.9358 41.0769 45.8899 43.1019 48.2895 43.1019Z" fill="white"/>
<path d="M32.7036 43.1019C35.1032 43.1019 37.0574 41.0769 37.0574 38.5794C37.0574 36.0987 35.1167 34.0737 32.7171 34.0737L32.7036 34.0839C30.304 34.0839 28.3499 36.1021 28.3499 38.5996C28.3499 41.0769 30.304 43.1019 32.7036 43.1019Z" fill="white"/>
</g>
<defs>
<clipPath id="clip0">
<rect width="81" height="81" fill="white"/>
</clipPath>
</defs>
</svg>
