<svg width="71" height="71" viewBox="0 0 71 71" fill="none" xmlns="http://www.w3.org/2000/svg">
<path d="M67.0808 8.0312e-08H3.91575C1.7529 0.00130013 -0.000433269 1.7555 8.0312e-08 3.91921V67.0843C0.00130013 69.2471 1.7555 71.0004 3.91921 71H37.9268V43.543H28.7051V32.7959H37.9268V24.8868C37.9268 15.715 43.5261 10.7228 51.7077 10.7228C55.6265 10.7228 58.994 11.0149 59.9756 11.1453V20.7314H54.3338C49.8824 20.7314 49.0205 22.8466 49.0205 25.9511V32.7959H59.6636L58.2769 43.543H49.0205V71H67.0808C69.2449 71.0004 70.9996 69.2467 71 67.0825C71 67.0821 71 67.0816 71 67.0808V3.91575C70.9991 1.7529 69.2445 -0.000433269 67.0808 8.0312e-08Z" fill="white"/>
</svg>
